<svg width="24" height="24" viewBox="0 0 24 24" fill="none" xmlns="http://www.w3.org/2000/svg">
<path d="M3 11V16M3 16V18C3 19.1046 3.89543 20 5 20H8M3 16L7.30109 12.5591C7.69898 12.2408 8.27259 12.2726 8.63289 12.6329L12 16M12 16L8 20M12 16L16.5832 11.2859C16.8399 11.0218 17.2209 10.9202 17.5749 11.0214L21 12M8 20H19C20.1046 20 21 19.1046 21 18V12M21 12V6C21 4.89543 20.1046 4 19 4H12H7.5" stroke="black" stroke-linecap="round"/>
<path d="M3 4V8" stroke="black" stroke-linecap="round" stroke-linejoin="round"/>
<path d="M1 6H5" stroke="black" stroke-linecap="round" stroke-linejoin="round"/>
</svg>
