<svg width="24" height="24" viewBox="0 0 24 24" fill="none" xmlns="http://www.w3.org/2000/svg">
<path d="M11.0621 5.53451C11.3843 4.66389 12.6157 4.66389 12.9379 5.53451L14.2712 9.13794C14.3725 9.41166 14.5883 9.62747 14.8621 9.72876L18.4655 11.0621C19.3361 11.3843 19.3361 12.6157 18.4655 12.9379L14.8621 14.2712C14.5883 14.3725 14.3725 14.5883 14.2712 14.8621L12.9379 18.4655C12.6157 19.3361 11.3843 19.3361 11.0621 18.4655L9.72876 14.8621C9.62747 14.5883 9.41166 14.3725 9.13794 14.2712L5.53451 12.9379C4.66389 12.6157 4.66389 11.3843 5.53451 11.0621L9.13794 9.72876C9.41166 9.62747 9.62747 9.41166 9.72876 9.13794L11.0621 5.53451Z" stroke="black" stroke-linejoin="round"/>
</svg>
