<svg width="24" height="24" viewBox="0 0 24 24" fill="none" xmlns="http://www.w3.org/2000/svg">
<path d="M8.75 17.5H7.5H5.26055C4.39241 17.5 3.93664 16.4697 4.52061 15.8273L7.82473 12.1928C7.93751 12.0687 8 11.9071 8 11.7394V9C8 6.79086 9.79086 5 12 5V5C14.2091 5 16 6.79086 16 9V11.7394C16 11.9071 16.0625 12.0687 16.1753 12.1928L19.4794 15.8273C20.0634 16.4697 19.6076 17.5 18.7394 17.5H16.5H16H15M8.75 17.5H12H15M8.75 17.5L8.96079 18.027C9.43745 19.2186 10.5916 20 11.875 20V20C13.1584 20 14.3126 19.2186 14.7892 18.027L15 17.5" stroke="black" stroke-linejoin="round"/>
</svg>
