<svg width="24" height="24" viewBox="0 0 24 24" fill="none" xmlns="http://www.w3.org/2000/svg">
<path d="M20 8V6C20 4.89543 19.1046 4 18 4H16M20 8H4M20 8V10M4 8V18C4 19.1046 4.89543 20 6 20H12M4 8V6C4 4.89543 4.89543 4 6 4H8M8 4H12H16M8 4V2.5V5.5V4ZM16 4V2.5V5.5" stroke="black" stroke-linecap="round" stroke-linejoin="round"/>
<path d="M21.6355 15.0785L21.3855 14.6454L21.6355 15.0785ZM21.7819 14.5321L21.3489 14.7821L21.7819 14.5321ZM20.6526 15.921L20.1528 15.9349L20.6526 15.921ZM20.6821 16.0496L20.9321 15.6166L20.6821 16.0496ZM21.7819 17.1464L21.3488 16.8964L21.7819 17.1464ZM21.6354 16.6L21.3854 17.033L21.6354 16.6ZM20.4354 18.6785L20.1854 19.1115L20.4354 18.6785ZM20.9819 18.5321L20.5488 18.2821L20.9819 18.5321ZM19.3737 18.3519L19.6455 18.7716L19.3737 18.3519ZM19.8305 18.3292L20.0805 17.8962L19.8305 18.3292ZM19.2768 18.4119L19.0223 17.9815L19.2768 18.4119ZM16.4305 18.4119L16.176 18.8423L16.4305 18.4119ZM15.4001 18.6785L15.6501 19.1115L15.4001 18.6785ZM14.2001 16.6L13.9501 16.167L14.2001 16.6ZM14.9638 16.1591L14.7138 15.7261L14.9638 16.1591ZM14.2001 15.0785L13.9501 15.5115L14.2001 15.0785ZM15.4001 13L15.1501 13.433L15.4001 13ZM16.3165 13.5291L16.0665 13.9621L16.3165 13.5291ZM19.4855 13.5485L19.7355 13.9815L19.4855 13.5485ZM15.9378 18.368L15.6878 17.935L15.9378 18.368ZM16.3861 18.3851L16.1237 18.8107L16.3861 18.3851ZM20.4355 13L20.1855 12.567L20.4355 13ZM17.0537 12.5H18.6537V11.5H17.0537V12.5ZM17.1537 13.3347V12.4H16.1537V13.3347H17.1537ZM15.1501 13.433L16.0665 13.9621L16.5665 13.0961L15.6501 12.567L15.1501 13.433ZM14.4867 14.7821L15.2867 13.3964L14.4206 12.8964L13.6206 14.2821L14.4867 14.7821ZM15.0984 15.0197L14.4501 14.6455L13.9501 15.5115L14.5984 15.8858L15.0984 15.0197ZM15.5537 16C15.5537 15.961 15.5546 15.9222 15.5565 15.8837L14.5578 15.8341C14.555 15.8891 14.5537 15.9444 14.5537 16H15.5537ZM14.4501 17.033L15.2138 16.5921L14.7138 15.7261L13.9501 16.167L14.4501 17.033ZM15.2867 18.2821L14.4867 16.8964L13.6207 17.3964L14.4207 18.7821L15.2867 18.2821ZM15.6878 17.935L15.1501 18.2454L15.6501 19.1115L16.1878 18.801L15.6878 17.935ZM16.685 17.9815C16.6728 17.9743 16.6606 17.9669 16.6486 17.9595L16.1237 18.8107C16.141 18.8214 16.1585 18.8319 16.176 18.8423L16.685 17.9815ZM17.1537 19.6V18.7834H16.1537V19.6H17.1537ZM18.6537 19.5H17.0537V20.5H18.6537V19.5ZM18.5537 18.7834V19.6H19.5537V18.7834H18.5537ZM19.1019 17.9322C19.0757 17.9492 19.0492 17.9656 19.0223 17.9815L19.5313 18.8423C19.5699 18.8194 19.6079 18.7959 19.6455 18.7716L19.1019 17.9322ZM20.6854 18.2455L20.0805 17.8962L19.5805 18.7622L20.1854 19.1115L20.6854 18.2455ZM21.3488 16.8964L20.5488 18.2821L21.4149 18.7821L22.2149 17.3964L21.3488 16.8964ZM20.4321 16.4826L21.3854 17.033L21.8854 16.167L20.9321 15.6166L20.4321 16.4826ZM20.1528 15.9349C20.1534 15.9565 20.1537 15.9782 20.1537 16H21.1537C21.1537 15.969 21.1532 15.938 21.1524 15.9072L20.1528 15.9349ZM21.3855 14.6454L20.612 15.092L21.112 15.958L21.8855 15.5115L21.3855 14.6454ZM20.5489 13.3964L21.3489 14.7821L22.2149 14.2821L21.4149 12.8964L20.5489 13.3964ZM19.7355 13.9815L20.6855 13.433L20.1855 12.567L19.2355 13.1154L19.7355 13.9815ZM18.5537 12.4V13.2993H19.5537V12.4H18.5537ZM19.4469 13.1095C19.4997 13.1386 19.5537 13.204 19.5537 13.2993H18.5537C18.5537 13.6025 18.7289 13.8554 18.9635 13.9849L19.4469 13.1095ZM21.8855 15.5115C22.3159 15.2629 22.4634 14.7125 22.2149 14.2821L21.3489 14.7821C21.3213 14.7342 21.3376 14.6731 21.3855 14.6454L21.8855 15.5115ZM21.1524 15.9072C21.1524 15.9083 21.1524 15.9134 21.1479 15.9221C21.1428 15.932 21.1316 15.9467 21.112 15.958L20.612 15.092C20.2921 15.2767 20.144 15.6178 20.1528 15.9349L21.1524 15.9072ZM20.9321 15.6166C21.0719 15.6973 21.1537 15.845 21.1537 16H20.1537C20.1537 16.1958 20.2569 16.3815 20.4321 16.4826L20.9321 15.6166ZM22.2149 17.3964C22.4634 16.966 22.3159 16.4155 21.8854 16.167L21.3854 17.033C21.3376 17.0054 21.3212 16.9442 21.3488 16.8964L22.2149 17.3964ZM20.1854 19.1115C20.6159 19.36 21.1663 19.2125 21.4149 18.7821L20.5488 18.2821C20.5765 18.2342 20.6376 18.2178 20.6854 18.2455L20.1854 19.1115ZM19.6455 18.7716C19.6447 18.7721 19.6405 18.7747 19.6306 18.7753C19.6194 18.776 19.6005 18.7738 19.5805 18.7622L20.0805 17.8962C19.7527 17.7069 19.374 17.756 19.1019 17.9322L19.6455 18.7716ZM19.5537 18.7834C19.5537 18.8052 19.547 18.8218 19.5414 18.831C19.5363 18.8392 19.5321 18.8418 19.5313 18.8423L19.0223 17.9815C18.7594 18.137 18.5537 18.4279 18.5537 18.7834H19.5537ZM18.6537 20.5C19.1507 20.5 19.5537 20.0971 19.5537 19.6H18.5537C18.5537 19.5448 18.5984 19.5 18.6537 19.5V20.5ZM16.1537 19.6C16.1537 20.0971 16.5566 20.5 17.0537 20.5V19.5C17.1089 19.5 17.1537 19.5448 17.1537 19.6H16.1537ZM16.176 18.8423C16.1752 18.8418 16.171 18.8392 16.1659 18.831C16.1603 18.8218 16.1537 18.8052 16.1537 18.7834H17.1537C17.1537 18.4279 16.9479 18.137 16.685 17.9815L16.176 18.8423ZM14.4207 18.7821C14.6692 19.2125 15.2196 19.36 15.6501 19.1115L15.1501 18.2454C15.1979 18.2178 15.2591 18.2342 15.2867 18.2821L14.4207 18.7821ZM13.9501 16.167C13.5196 16.4155 13.3721 16.9659 13.6207 17.3964L14.4867 16.8964C14.5143 16.9442 14.4979 17.0054 14.4501 17.033L13.9501 16.167ZM14.5537 16C14.5537 15.8971 14.6067 15.7879 14.7138 15.7261L15.2138 16.5921C15.4338 16.4651 15.5537 16.2334 15.5537 16H14.5537ZM14.5984 15.8858C14.5783 15.8742 14.567 15.859 14.562 15.849C14.5575 15.8402 14.5577 15.8352 14.5578 15.8341L15.5565 15.8837C15.5726 15.5603 15.4255 15.2086 15.0984 15.0197L14.5984 15.8858ZM13.6206 14.2821C13.3721 14.7125 13.5196 15.263 13.9501 15.5115L14.4501 14.6455C14.4979 14.6731 14.5143 14.7342 14.4867 14.7821L13.6206 14.2821ZM15.6501 12.567C15.2196 12.3185 14.6692 12.466 14.4206 12.8964L15.2867 13.3964C15.2591 13.4442 15.1979 13.4606 15.1501 13.433L15.6501 12.567ZM16.2971 13.0895C16.371 13.0499 16.4734 13.0424 16.5665 13.0961L16.0665 13.9621C16.2933 14.093 16.5595 14.0834 16.7694 13.971L16.2971 13.0895ZM16.1537 13.3347C16.1537 13.2189 16.2197 13.131 16.2971 13.0895L16.7694 13.971C16.9919 13.8518 17.1537 13.6151 17.1537 13.3347H16.1537ZM19.2355 13.1154C19.3139 13.0702 19.3948 13.0807 19.4469 13.1095L18.9635 13.9849C19.1906 14.1103 19.4841 14.1266 19.7355 13.9815L19.2355 13.1154ZM18.6537 12.5C18.5984 12.5 18.5537 12.4552 18.5537 12.4H19.5537C19.5537 11.9029 19.1507 11.5 18.6537 11.5V12.5ZM16.1878 18.801C16.1681 18.8124 16.1496 18.8147 16.1386 18.8142C16.1288 18.8137 16.1245 18.8112 16.1237 18.8107L16.6486 17.9595C16.3784 17.7929 16.0083 17.75 15.6878 17.935L16.1878 18.801ZM21.4149 12.8964C21.1664 12.4659 20.6159 12.3185 20.1855 12.567L20.6855 13.433C20.6376 13.4606 20.5765 13.4442 20.5489 13.3964L21.4149 12.8964ZM17.0537 11.5C16.5566 11.5 16.1537 11.9029 16.1537 12.4H17.1537C17.1537 12.4552 17.1089 12.5 17.0537 12.5V11.5Z" fill="black"/>
<circle cx="17.8533" cy="16" r="1.2" stroke="black"/>
</svg>
