<svg width="24" height="24" viewBox="0 0 24 24" fill="none" xmlns="http://www.w3.org/2000/svg">
<path d="M21 17V10C21 8.89543 20.1046 8 19 8H17.118C16.7393 8 16.393 7.786 16.2236 7.44721L15.5528 6.10557C15.214 5.428 14.5215 5 13.7639 5H10.2361C9.47852 5 8.786 5.428 8.44721 6.10557L7.77639 7.44721C7.607 7.786 7.26074 8 6.88197 8H5C3.89543 8 3 8.89543 3 10V17C3 18.1046 3.89543 19 5 19H19C20.1046 19 21 18.1046 21 17Z" stroke="black" stroke-linejoin="round"/>
<circle cx="12" cy="13" r="3" stroke="black"/>
</svg>
