<svg width="24" height="24" viewBox="0 0 24 24" fill="none" xmlns="http://www.w3.org/2000/svg">
<path d="M18 10L17.2785 5.6712C17.1178 4.70683 16.2834 4 15.3057 4H8.69425C7.71658 4 6.8822 4.70683 6.72147 5.6712L6 10M18 10H6M18 10L20.5547 11.7031C20.8329 11.8886 21 12.2008 21 12.5352V19H18V17H6V19.5H3V12.9684C3 12.6716 3.13182 12.3901 3.35982 12.2002L6 10M18 10H21H6M6 10H3" stroke="black" stroke-linecap="round" stroke-linejoin="round"/>
<path d="M17 13H15" stroke="black" stroke-linecap="round" stroke-linejoin="round"/>
<path d="M9 13H7" stroke="black" stroke-linecap="round" stroke-linejoin="round"/>
</svg>
