<svg width="24" height="24" viewBox="0 0 24 24" fill="none" xmlns="http://www.w3.org/2000/svg">
<path d="M20.9118 13.2568C20.6827 14.8811 20.0141 16.4119 18.9781 17.6838C17.9422 18.9556 16.5783 19.9202 15.034 20.4732C13.4896 21.0261 11.8235 21.1465 10.2156 20.8213C8.60781 20.4961 7.11945 19.7376 5.91142 18.6279C4.70338 17.5181 3.82162 16.0993 3.36142 14.5248C2.90123 12.9503 2.8801 11.28 3.30034 9.69434C3.72057 8.10869 4.56618 6.66806 5.74577 5.52813C6.92536 4.3882 8.39406 3.59234 9.99314 3.22656" stroke="black" stroke-width="0.9" stroke-linecap="round" stroke-linejoin="round"/>
<path d="M21 12C21 10.8181 20.7672 9.64778 20.3149 8.55585C19.8626 7.46392 19.1997 6.47177 18.364 5.63604C17.5282 4.80031 16.5361 4.13738 15.4442 3.68508C14.3522 3.23279 13.1819 3 12 3L12 12H21Z" stroke="black" stroke-width="0.9" stroke-linejoin="round"/>
</svg>
