<svg width="24" height="24" viewBox="0 0 24 24" fill="none" xmlns="http://www.w3.org/2000/svg">
<path d="M4.89333 16.48L5.38143 16.5885C5.42145 16.4083 5.35903 16.2208 5.21904 16.1006L4.89333 16.48ZM4 20.5L3.51191 20.3915C3.47283 20.5674 3.53136 20.7507 3.66513 20.8713C3.7989 20.9919 3.98722 21.0313 4.15811 20.9743L4 20.5ZM9.38246 18.7058L9.4945 18.2186C9.40497 18.198 9.3115 18.2025 9.22435 18.2315L9.38246 18.7058ZM21.5 10.5C21.5 14.8452 17.326 18.5 12 18.5V19.5C17.7197 19.5 22.5 15.5437 22.5 10.5H21.5ZM12 2.5C17.326 2.5 21.5 6.15483 21.5 10.5H22.5C22.5 5.45633 17.7197 1.5 12 1.5V2.5ZM2.5 10.5C2.5 6.15483 6.67402 2.5 12 2.5V1.5C6.28029 1.5 1.5 5.45633 1.5 10.5H2.5ZM5.21904 16.1006C3.52479 14.646 2.5 12.6659 2.5 10.5H1.5C1.5 12.9976 2.68445 15.2425 4.56763 16.8594L5.21904 16.1006ZM4.48809 20.6085L5.38143 16.5885L4.40524 16.3715L3.51191 20.3915L4.48809 20.6085ZM9.22435 18.2315L3.84189 20.0257L4.15811 20.9743L9.54058 19.1802L9.22435 18.2315ZM12 18.5C11.132 18.5 10.292 18.4019 9.4945 18.2186L9.27043 19.1931C10.1415 19.3934 11.0566 19.5 12 19.5V18.5Z" fill="black"/>
<circle cx="8" cy="11" r="1" fill="black"/>
<circle cx="12" cy="11" r="1" fill="black"/>
<circle cx="16" cy="11" r="1" fill="black"/>
</svg>
