<svg width="24" height="24" viewBox="0 0 24 24" fill="none" xmlns="http://www.w3.org/2000/svg">
<path d="M8.5 3.94737H6C5.44772 3.94737 5 4.39508 5 4.94737V20C5 20.5523 5.44772 21 6 21H18C18.5523 21 19 20.5523 19 20V4.94737C19 4.39508 18.5523 3.94737 18 3.94737H15.5M8.5 3.94737V3.94737C8.5 4.47059 8.92415 4.89474 9.44737 4.89474H14.5526C15.0758 4.89474 15.5 4.47059 15.5 3.94737V3.94737M8.5 3.94737V3.94737C8.5 3.42415 8.92415 3 9.44737 3H14.5526C15.0758 3 15.5 3.42415 15.5 3.94737V3.94737" stroke="black" stroke-linejoin="round"/>
</svg>
