<svg width="24" height="24" viewBox="0 0 24 24" fill="none" xmlns="http://www.w3.org/2000/svg">
<path d="M21.8209 8.33013L21.3879 8.58013L21.8209 8.33013ZM18.9976 11.8025L19.4974 11.7887L18.9976 11.8025ZM19.5212 10.8126L19.2712 10.3796L19.5212 10.8126ZM19.0714 12.124L19.3214 11.691L19.0714 12.124ZM21.8209 14.866L21.3878 14.616L21.8209 14.866ZM21.4548 13.5L21.7048 13.067L21.7048 13.067L21.4548 13.5ZM18.4548 18.6962L18.7048 18.2632L18.4548 18.6962ZM15.8004 17.8797L15.5286 17.46L15.8004 17.8797ZM15.5582 18.0297L15.8127 18.4601L15.5582 18.0297ZM8.4425 18.0297L8.188 18.4601L8.188 18.4601L8.4425 18.0297ZM4.5004 18.3301L4.06739 18.5801L4.5004 18.3301ZM5.86643 18.6962L5.61643 18.2631L5.86643 18.6962ZM2.86643 13.5L2.61643 13.067L2.86643 13.5ZM4.77562 12.3977L4.52562 11.9647L4.77562 12.3977ZM4.48709 10.6319L4.73709 10.1989L4.48709 10.6319ZM8.15758 5.82284L7.90758 6.25585L8.15758 5.82284ZM7.21065 17.9201L7.46065 18.3531L7.21065 17.9201ZM8.33152 17.9627L8.59395 17.5371L8.33152 17.9627ZM19.8209 4.86603L20.2539 4.61603L19.8209 4.86603ZM18.4549 4.5L18.2049 4.06699L18.4549 4.5ZM10.0004 2.5H14.0004V1.5H10.0004V2.5ZM9.50035 5.33686V3H8.50035V5.33686H9.50035ZM5.61638 4.93303L7.90758 6.25585L8.40758 5.38983L6.11638 4.067L5.61638 4.93303ZM2.93337 8.58014L4.93337 5.11604L4.06734 4.61604L2.06734 8.08014L2.93337 8.58014ZM4.73709 10.1989L3.11638 9.26315L2.61638 10.1292L4.23709 11.0649L4.73709 10.1989ZM5.50035 12C5.50035 11.89 5.50308 11.7807 5.50847 11.6721L4.5097 11.6225C4.50349 11.7476 4.50035 11.8735 4.50035 12H5.50035ZM3.11643 13.933L5.02562 12.8307L4.52562 11.9647L2.61643 13.067L3.11643 13.933ZM4.93341 18.0801L2.93341 14.616L2.06739 15.116L4.06739 18.5801L4.93341 18.0801ZM6.96065 17.4871L5.61643 18.2631L6.11643 19.1292L7.46065 18.3531L6.96065 17.4871ZM8.697 17.5993C8.66244 17.5789 8.62809 17.5581 8.59395 17.5371L8.0691 18.3883C8.10849 18.4126 8.14813 18.4365 8.188 18.4601L8.697 17.5993ZM9.50035 21V18.9584H8.50035V21H9.50035ZM14.0004 21.5H10.0004V22.5H14.0004V21.5ZM14.5004 18.9584V21H15.5004V18.9584H14.5004ZM15.5286 17.46C15.4547 17.5079 15.3797 17.5544 15.3037 17.5993L15.8127 18.4601C15.9004 18.4082 15.9869 18.3547 16.0722 18.2994L15.5286 17.46ZM18.7048 18.2632L17.1924 17.3899L16.6924 18.256L18.2048 19.1292L18.7048 18.2632ZM21.3878 14.616L19.3878 18.0801L20.2539 18.5801L22.2539 15.116L21.3878 14.616ZM18.8214 12.557L21.2048 13.933L21.7048 13.067L19.3214 11.691L18.8214 12.557ZM18.4978 11.8164C18.4995 11.8774 18.5004 11.9386 18.5004 12H19.5004C19.5004 11.9293 19.4994 11.8589 19.4974 11.7887L18.4978 11.8164ZM21.2049 9.26314L19.2712 10.3796L19.7712 11.2456L21.7049 10.1292L21.2049 9.26314ZM19.3879 5.11603L21.3879 8.58013L22.2539 8.08013L20.2539 4.61603L19.3879 5.11603ZM16.33 6.30415L18.7049 4.93301L18.2049 4.06699L15.83 5.43813L16.33 6.30415ZM14.5004 3V5.24837H15.5004V3H14.5004ZM15.621 5.43035C15.5373 5.38413 15.5004 5.30883 15.5004 5.24837H14.5004C14.5004 5.7074 14.7665 6.10085 15.1376 6.30575L15.621 5.43035ZM21.7049 10.1292C22.4223 9.71495 22.6681 8.79757 22.2539 8.08013L21.3879 8.58013C21.526 8.81927 21.444 9.12507 21.2049 9.26314L21.7049 10.1292ZM19.4974 11.7887C19.4907 11.5445 19.6048 11.3416 19.7712 11.2456L19.2712 10.3796C18.743 10.6845 18.4824 11.2588 18.4978 11.8164L19.4974 11.7887ZM19.3214 11.691C19.4347 11.7564 19.5004 11.8757 19.5004 12H18.5004C18.5004 12.2264 18.6198 12.4405 18.8214 12.557L19.3214 11.691ZM22.2539 15.116C22.6681 14.3986 22.4223 13.4812 21.7048 13.067L21.2048 13.933C21.444 14.0711 21.5259 14.3769 21.3878 14.616L22.2539 15.116ZM18.2048 19.1292C18.9223 19.5434 19.8397 19.2976 20.2539 18.5801L19.3878 18.0801C19.2498 18.3193 18.944 18.4012 18.7048 18.2632L18.2048 19.1292ZM16.0722 18.2994C16.2828 18.163 16.5222 18.1577 16.6924 18.256L17.1924 17.3899C16.6512 17.0775 16.0075 17.1499 15.5286 17.46L16.0722 18.2994ZM15.5004 18.9584C15.5004 18.7735 15.6104 18.5797 15.8127 18.4601L15.3037 17.5993C14.8414 17.8727 14.5004 18.3713 14.5004 18.9584H15.5004ZM14.0004 22.5C14.8288 22.5 15.5004 21.8284 15.5004 21H14.5004C14.5004 21.2761 14.2765 21.5 14.0004 21.5V22.5ZM8.50035 21C8.50035 21.8284 9.17193 22.5 10.0004 22.5V21.5C9.72421 21.5 9.50035 21.2761 9.50035 21H8.50035ZM8.188 18.4601C8.39029 18.5797 8.50035 18.7735 8.50035 18.9584H9.50035C9.50035 18.3713 9.1593 17.8727 8.697 17.5993L8.188 18.4601ZM4.06739 18.5801C4.4816 19.2976 5.39899 19.5434 6.11643 19.1292L5.61643 18.2631C5.37728 18.4012 5.07149 18.3193 4.93341 18.0801L4.06739 18.5801ZM2.61643 13.067C1.89899 13.4812 1.65318 14.3986 2.06739 15.116L2.93341 14.616C2.79534 14.3769 2.87728 14.0711 3.11643 13.933L2.61643 13.067ZM4.50035 12C4.50035 11.995 4.50335 11.9776 4.52562 11.9647L5.02562 12.8307C5.33045 12.6547 5.50035 12.3313 5.50035 12H4.50035ZM4.23709 11.0649C4.40707 11.163 4.5221 11.3726 4.5097 11.6225L5.50847 11.6721C5.53671 11.103 5.2773 10.5108 4.73709 10.1989L4.23709 11.0649ZM2.06734 8.08014C1.65313 8.79758 1.89894 9.71497 2.61638 10.1292L3.11638 9.26315C2.87723 9.12508 2.79529 8.81929 2.93337 8.58014L2.06734 8.08014ZM6.11638 4.067C5.39894 3.65279 4.48155 3.8986 4.06734 4.61604L4.93337 5.11604C5.07144 4.87689 5.37723 4.79496 5.61638 4.93303L6.11638 4.067ZM8.46325 5.38491C8.43516 5.39995 8.41463 5.3939 8.40758 5.38983L7.90758 6.25585C8.23448 6.44459 8.62367 6.43343 8.93549 6.26637L8.46325 5.38491ZM8.50035 5.33686C8.50035 5.34156 8.49917 5.34843 8.49356 5.35743C8.48762 5.36696 8.47752 5.37726 8.46325 5.38491L8.93549 6.26637C9.26675 6.0889 9.50035 5.74065 9.50035 5.33686H8.50035ZM15.83 5.43813C15.7786 5.46779 15.7 5.47399 15.621 5.43035L15.1376 6.30575C15.4958 6.50357 15.9488 6.52424 16.33 6.30415L15.83 5.43813ZM14.0004 2.5C14.2765 2.5 14.5004 2.72386 14.5004 3H15.5004C15.5004 2.17157 14.8288 1.5 14.0004 1.5V2.5ZM7.46065 18.3531C7.6272 18.2569 7.86052 18.2597 8.0691 18.3883L8.59395 17.5371C8.11861 17.244 7.48993 17.1815 6.96065 17.4871L7.46065 18.3531ZM20.2539 4.61603C19.8397 3.89859 18.9223 3.65277 18.2049 4.06699L18.7049 4.93301C18.944 4.79494 19.2498 4.87688 19.3879 5.11603L20.2539 4.61603ZM10.0004 1.5C9.17192 1.5 8.50035 2.17157 8.50035 3H9.50035C9.50035 2.72386 9.72421 2.5 10.0004 2.5V1.5Z" fill="black"/>
<circle cx="12" cy="12" r="3" stroke="black"/>
</svg>
