<svg width="24" height="24" viewBox="0 0 24 24" fill="none" xmlns="http://www.w3.org/2000/svg">
<path d="M9.76367 10C10.313 9.38625 11.1113 9 11.9998 9C13.6566 9 14.9998 10.3431 14.9998 12C14.9998 12.8885 14.6135 13.6868 13.9998 14.2361" stroke="black"/>
<path d="M12 19.5C6.74603 19.5 2 12 2 12C2 12 2.75658 10.8044 4 9.36792M6.5 6.89534C8.10957 5.5666 10.0187 4.5 12 4.5C17.254 4.5 22 12 22 12C22 12 20.1586 14.9099 17.5 17.1047C17.116 17.4217 16.7149 17.7238 16.2999 18" stroke="black" stroke-linecap="round" stroke-linejoin="round"/>
<path d="M4 4L20.5 20.5" stroke="black" stroke-linecap="round" stroke-linejoin="round"/>
</svg>
