<svg width="24" height="24" viewBox="0 0 24 24" fill="none" xmlns="http://www.w3.org/2000/svg">
<path d="M9.5 5H4C3.44772 5 3 5.44772 3 6V21C3 21.5523 3.44772 22 4 22H15C15.5523 22 16 21.5523 16 21V11.5M9.5 5L12.5 8L16 11.5M9.5 5V10.5C9.5 11.0523 9.94772 11.5 10.5 11.5H16" stroke="black" stroke-linejoin="round"/>
<path d="M15.5 2L18.5 5L22 8.5M15.5 2V7.5C15.5 8.05228 15.9477 8.5 16.5 8.5H22M15.5 2H12.25H10C9.44772 2 9 2.44772 9 3V4.5M22 8.5V18C22 18.5523 21.5523 19 21 19H15.5" stroke="black" stroke-linejoin="round"/>
</svg>
