<svg width="24" height="24" viewBox="0 0 24 24" fill="none" xmlns="http://www.w3.org/2000/svg">
<path d="M12.5 4H7C6.44772 4 6 4.44772 6 5V20C6 20.5523 6.44772 21 7 21H18C18.5523 21 19 20.5523 19 20V10.5M12.5 4L15.5 7L19 10.5M12.5 4V9.5C12.5 10.0523 12.9477 10.5 13.5 10.5H19" stroke="black" stroke-linejoin="round"/>
<path d="M13.9474 14.2105H12.5263H11.1053M13.9474 14.2105H14.4211C14.7699 14.2105 15.0526 14.4933 15.0526 14.8421V17.3684C15.0526 17.7172 14.7699 18 14.4211 18H12.5263H10.6316C10.2828 18 10 17.7172 10 17.3684V16.7368V14.8421C10 14.4933 10.2828 14.2105 10.6316 14.2105H11.1053M13.9474 14.2105V13.2632C13.9474 12.5655 13.3818 12 12.6842 12H12.3684C11.6708 12 11.1053 12.5655 11.1053 13.2632V14.2105" stroke="black" stroke-linecap="round"/>
</svg>
