<svg width="24" height="24" viewBox="0 0 24 24" fill="none" xmlns="http://www.w3.org/2000/svg">
<path d="M4 6.02521V4C4 3.44772 4.44772 3 5 3H19C19.5523 3 20 3.44772 20 4V6.0022C20 6.26089 19.8998 6.50951 19.7203 6.69584L14.6581 11.9528C14.4786 12.1391 14.3784 12.3878 14.3784 12.6464V17.0807C14.3784 17.4032 14.2228 17.706 13.9605 17.8938L11.2037 19.8674C10.542 20.3411 9.62162 19.8681 9.62162 19.0542V13.1099C9.62162 12.865 9.53174 12.6286 9.36903 12.4456L4.25259 6.68957C4.08988 6.50652 4 6.27012 4 6.02521Z" stroke="black" stroke-linecap="round" stroke-linejoin="round"/>
</svg>
