<svg width="24" height="24" viewBox="0 0 24 24" fill="none" xmlns="http://www.w3.org/2000/svg">
<path d="M12 22V22C17.5228 22 22 17.5228 22 12V12V12C22 6.47715 17.5228 2 12 2V2M12 22V22C6.47715 22 2 17.5228 2 12V12V12C2 6.47715 6.47715 2 12 2V2M12 22V22C6.67633 16.3961 6.67633 7.60386 12 2V2M12 22V22C17.3237 16.3961 17.3237 7.60386 12 2V2" stroke="black"/>
<path d="M21 8H3" stroke="black" stroke-linecap="round" stroke-linejoin="round"/>
<path d="M21 16H3" stroke="black" stroke-linecap="round" stroke-linejoin="round"/>
</svg>
