<svg width="24" height="24" viewBox="0 0 24 24" fill="none" xmlns="http://www.w3.org/2000/svg">
<path d="M12.4827 6.968L11.864 6.34925C10.065 4.55025 7.14824 4.55025 5.34925 6.34925C3.55025 8.14824 3.55025 11.065 5.34924 12.864L12.4853 20L19 13.4853L18.9975 13.4827L19.6162 12.864C21.4152 11.065 21.4152 8.14824 19.6162 6.34925C18.8177 5.55074 17.799 5.10666 16.7556 5.01701C16.3424 4.98151 15.9253 5.00158 15.5165 5.07723C15.1152 5.15149 14.7219 5.2793 14.348 5.46066M12.4827 6.968L13.6739 8.22463M12.4827 6.968L13.6739 5.86251M14.348 5.46066C14.1148 5.57378 13.8892 5.70773 13.6739 5.86251M14.348 5.46066L13.6739 5.86251" stroke="black" stroke-linecap="round"/>
</svg>
