<svg width="24" height="24" viewBox="0 0 24 24" fill="none" xmlns="http://www.w3.org/2000/svg">
<path d="M21 19.1V9.82066C21 9.49434 20.8408 9.18855 20.5735 9.00142L12.5735 3.40142C12.2291 3.1604 11.7709 3.1604 11.4265 3.40142L3.42654 9.00142C3.15921 9.18855 3 9.49434 3 9.82066V19.1C3 19.6523 3.44772 20.1 4 20.1H7.5H8.75C9.30228 20.1 9.75 19.6523 9.75 19.1V14.35C9.75 13.7977 10.1977 13.35 10.75 13.35H13.25C13.8023 13.35 14.25 13.7977 14.25 14.35V19.1C14.25 19.6523 14.6977 20.1 15.25 20.1H16.5H20C20.5523 20.1 21 19.6523 21 19.1Z" stroke="black" stroke-linejoin="round"/>
</svg>
