<svg width="24" height="24" viewBox="0 0 24 24" fill="none" xmlns="http://www.w3.org/2000/svg">
<path d="M14.8276 9.17157L9.17078 14.8284" stroke="black" stroke-linecap="round" stroke-linejoin="round"/>
<path fill-rule="evenodd" clip-rule="evenodd" d="M8.81772 7.40381C8.62246 7.59907 8.30587 7.59907 8.11061 7.40381C7.91535 7.20855 7.91535 6.89196 8.11061 6.6967L10.2319 4.57538C12.7703 2.03697 16.8859 2.03697 19.4243 4.57538C21.9627 7.11379 21.9627 11.2294 19.4243 13.7678L17.303 15.8891C17.1077 16.0844 16.7912 16.0844 16.5959 15.8891C16.4006 15.6938 16.4006 15.3772 16.5959 15.182L18.7172 13.0607C20.8651 10.9128 20.8651 7.43037 18.7172 5.28249C16.5693 3.1346 13.0869 3.1346 10.939 5.28249L8.81772 7.40381ZM7.4035 8.81802C7.59877 8.62276 7.59877 8.30618 7.4035 8.11091C7.20824 7.91565 6.89166 7.91565 6.6964 8.11091L4.57508 10.2322C2.03667 12.7706 2.03667 16.8862 4.57508 19.4246C7.11348 21.963 11.2291 21.963 13.7675 19.4246L15.8888 17.3033C16.084 17.108 16.084 16.7915 15.8888 16.5962C15.6935 16.4009 15.3769 16.4009 15.1817 16.5962L13.0604 18.7175C10.9125 20.8654 7.43007 20.8654 5.28218 18.7175C3.1343 16.5696 3.1343 13.0872 5.28218 10.9393L7.4035 8.81802Z" fill="black"/>
</svg>
