<svg width="24" height="24" viewBox="0 0 24 24" fill="none" xmlns="http://www.w3.org/2000/svg">
<path d="M21.0476 21.5H20.5714C10.3147 21.5 2 13.1853 2 2.92857C2 2.41574 2.41574 2 2.92857 2H7.32297C7.73187 2 8.09958 2.24895 8.25144 2.62861L9.80464 6.51159C9.92693 6.81734 9.89087 7.16369 9.70821 7.43768L8.45475 9.31788C8.19033 9.7145 8.24262 10.2426 8.57969 10.5797L13.2929 15.2929C13.6834 15.6834 14.3166 15.6834 14.7071 15.2929L16.0497 13.9503C16.3244 13.6756 16.7334 13.5849 17.0985 13.7176L21.3417 15.2606C21.7369 15.4043 22 15.7799 22 16.2004V20.5476C22 21.0736 21.5736 21.5 21.0476 21.5Z" stroke="black" stroke-linecap="round" stroke-linejoin="round"/>
<path d="M13.5 5H14C16.7614 5 19 7.23858 19 10V10" stroke="black" stroke-linecap="round" stroke-linejoin="round"/>
<path d="M14 2V2C18.4183 2 22 5.58172 22 10V10" stroke="black" stroke-linecap="round" stroke-linejoin="round"/>
</svg>
