<svg width="24" height="24" viewBox="0 0 24 24" fill="none" xmlns="http://www.w3.org/2000/svg">
<path d="M8 7H4C3.44772 7 3 7.44772 3 8V15C3 15.5523 3.44772 16 4 16H5.5M8 7H12H16M8 7V5C8 4.44772 8.44772 4 9 4H15C15.5523 4 16 4.44772 16 5V7M16 7H20C20.5523 7 21 7.44772 21 8V15C21 15.5523 20.5523 16 20 16H18.5M17.5 20H6.5C5.94772 20 5.5 19.5523 5.5 19V12C5.5 11.4477 5.94772 11 6.5 11H17.5C18.0523 11 18.5 11.4477 18.5 12V19C18.5 19.5523 18.0523 20 17.5 20Z" stroke="black" stroke-linejoin="round"/>
</svg>
