<svg width="24" height="24" viewBox="0 0 24 24" fill="none" xmlns="http://www.w3.org/2000/svg">
<path d="M17.0402 19.2632H18.4002C19.5048 19.2632 20.4002 18.3677 20.4002 17.2632V12.1316M17.0402 18.5263L16.2002 19.2632L17.0402 20" stroke="black" stroke-linecap="round" stroke-linejoin="round"/>
<path d="M12.3999 19H4.9999C3.89533 19 2.9999 18.1046 2.9999 17V6.73684C2.9999 5.63227 3.89533 4.73684 4.9999 4.73684H9.4849H10.3249M9.4849 5.47368L10.3249 4.73684M10.3249 4.73684L9.4849 4" stroke="black" stroke-linecap="round" stroke-linejoin="round"/>
<path d="M20.0209 7.65692L21.8494 5.82843L19.021 3L17.1925 4.82849L10.7054 11.3156L10.5357 14.3137L13.5338 14.144L20.0209 7.65692ZM20.0209 7.65692L18.6067 6.24271" stroke="black" stroke-linecap="round" stroke-linejoin="round"/>
</svg>
