<svg width="24" height="24" viewBox="0 0 24 24" fill="none" xmlns="http://www.w3.org/2000/svg">
<path d="M9.75 9.71429H12H14.25M9.75 9.71429H14.25M9.75 9.71429H8.625M14.25 9.71429H15.375M8.625 9.71429H6.375L3.86085 17.3765C3.43648 18.6698 4.4 20 5.76116 20H18.2388C19.6 20 20.5635 18.6698 20.1392 17.3765L17.625 9.71429H15.375M8.625 9.71429H15.375M8.625 9.71429V8.375C8.625 6.51104 10.136 5 12 5V5C13.864 5 15.375 6.51104 15.375 8.375V9.71429M8.625 9.71429V12.5714M15.375 9.71429V12.5714" stroke="black" stroke-linecap="round" stroke-linejoin="round"/>
</svg>
