<svg width="24" height="24" viewBox="0 0 24 24" fill="none" xmlns="http://www.w3.org/2000/svg">
<path d="M11.0488 4.92705C11.3481 4.00574 12.6515 4.00574 12.9509 4.92705L14.0204 8.21885C14.1543 8.63087 14.5383 8.90983 14.9715 8.90983H18.4327C19.4014 8.90983 19.8042 10.1494 19.0205 10.7188L16.2203 12.7533C15.8698 13.0079 15.7232 13.4593 15.857 13.8713L16.9266 17.1631C17.226 18.0844 16.1715 18.8506 15.3878 18.2812L12.5876 16.2467C12.2371 15.9921 11.7625 15.9921 11.412 16.2467L8.61187 18.2812C7.82815 18.8506 6.77367 18.0844 7.07303 17.1631L8.1426 13.8713C8.27647 13.4593 8.12981 13.0079 7.77932 12.7533L4.97916 10.7188C4.19544 10.1494 4.59822 8.90983 5.56694 8.90983H9.02814C9.46137 8.90983 9.84532 8.63087 9.9792 8.21885L11.0488 4.92705Z" stroke="black"/>
</svg>
