<svg width="24" height="24" viewBox="0 0 24 24" fill="none" xmlns="http://www.w3.org/2000/svg">
<path d="M13 18.1648V5.83522C13 5.04332 12.1233 4.56561 11.4579 4.99492L5.49754 8.8403C5.33595 8.94455 5.14772 9 4.95541 9H3C2.44772 9 2 9.44772 2 10V14C2 14.5523 2.44772 15 3 15H4.95541C5.14772 15 5.33595 15.0554 5.49754 15.1597L11.4579 19.0051C12.1233 19.4344 13 18.9567 13 18.1648Z" stroke="black" stroke-linecap="round" stroke-linejoin="round"/>
<path d="M16.2114 7.7265C17.3155 8.81464 17.9999 10.3274 17.9999 12C17.9999 13.6726 17.3155 15.1854 16.2114 16.2735" stroke="black" stroke-linecap="round"/>
</svg>
