<svg width="24" height="24" viewBox="0 0 24 24" fill="none" xmlns="http://www.w3.org/2000/svg">
<path d="M5.99902 4C3.57069 5.82446 2 8.7288 2 12C2 15.2716 3.57111 18.1763 6 20.0007M18.001 4C20.4293 5.82446 22 8.7288 22 12C22 15.2716 20.4289 18.1763 18 20.0007" stroke="black" stroke-linecap="round" stroke-linejoin="round"/>
<circle cx="12" cy="12" r="1.5" stroke="black"/>
<path d="M8 7.52777C6.7725 8.62641 6 10.223 6 12C6 13.777 6.7725 15.3736 8 16.4722M16 16.4722C17.2275 15.3736 18 13.777 18 12C18 10.223 17.2275 8.62641 16 7.52777" stroke="black" stroke-linecap="round" stroke-linejoin="round"/>
</svg>
