<svg width="24" height="24" viewBox="0 0 24 24" fill="none" xmlns="http://www.w3.org/2000/svg">
<path d="M3 8.5V18.25C3 18.8467 3.23705 19.419 3.65901 19.841C4.08097 20.2629 4.65326 20.5 5.25 20.5H18.75C19.3467 20.5 19.919 20.2629 20.341 19.841C20.7629 19.419 21 18.8467 21 18.25V8.5M3 8.5V6.25C3 5.65326 3.23705 5.08097 3.65901 4.65901C4.08097 4.23705 4.65326 4 5.25 4H18.75C19.3467 4 19.919 4.23705 20.341 4.65901C20.7629 5.08097 21 5.65326 21 6.25V8.5M3 8.5H21M5.25 6.25H5.258V6.258H5.25V6.25ZM7.5 6.25H7.508V6.258H7.5V6.25ZM9.75 6.25H9.758V6.258H9.75V6.25Z" stroke="black" stroke-linecap="round" stroke-linejoin="round"/>
</svg>
