<svg width="149" height="28" viewBox="0 0 149 28" fill="none" xmlns="http://www.w3.org/2000/svg">
<path fill-rule="evenodd" clip-rule="evenodd" d="M13.1709 0.00109863L14.1773 0.958421C16.7137 3.37129 20.135 4.84893 23.9029 4.84893C23.9629 4.84893 24.0228 4.8486 24.0825 4.84792L25.1557 4.83443L25.491 5.85854C26.0564 7.58908 26.3436 9.39837 26.3419 11.2189C26.3419 19.212 20.8993 25.9245 13.5357 27.8282L13.1709 27.9225L12.8061 27.8282C5.4427 25.9245 0 19.212 0 11.2189C0 9.34932 0.298362 7.54684 0.850897 5.85854L1.1862 4.83443L2.25939 4.84792C2.31909 4.8486 2.37914 4.84893 2.43901 4.84893C6.20691 4.84893 9.6282 3.37129 12.1647 0.958421L13.1709 0.00109863ZM3.34725 7.76509C3.06714 8.89498 2.926 10.0548 2.92695 11.2189C2.92695 17.7055 7.25514 23.1802 13.1709 24.8815C19.0867 23.1802 23.4151 17.7055 23.4151 11.2189C23.4151 10.0263 23.269 8.86948 22.9946 7.76509C19.2825 7.56944 15.8828 6.18186 13.1709 3.97813C10.459 6.18186 7.05949 7.56944 3.34725 7.76509Z" fill="#0F172A"/>
<path d="M46.3949 9.79105C44.6737 9.79105 43.3378 10.4367 42.567 11.5988V4.9874H39.2529V23.0652H42.567V16.0924C42.567 13.8457 43.7745 12.89 45.3931 12.89C46.8832 12.89 47.9365 13.7941 47.9365 15.5502V23.0652H51.2506V15.1369C51.2506 11.7021 49.1183 9.79105 46.3949 9.79105ZM56.3669 17.9777H66.0523C66.1294 17.5387 66.1808 17.0997 66.1808 16.6088C66.1808 12.8126 63.4833 9.79105 59.681 9.79105C55.6474 9.79105 52.8986 12.761 52.8986 16.6088C52.8986 20.4569 55.6217 23.4268 59.9379 23.4268C62.4042 23.4268 64.3311 22.4196 65.5386 20.6635L62.8667 19.114C62.3015 19.863 61.2738 20.4052 59.9893 20.4052C58.2422 20.4052 56.8292 19.6822 56.3669 17.9777ZM56.3154 15.3952C56.7008 13.7423 57.9083 12.7868 59.681 12.7868C61.0683 12.7868 62.4556 13.5357 62.8667 15.3952H56.3154ZM71.2952 12.3736V10.1525H67.9811V23.0652H71.2952V16.893C71.2952 14.1813 73.479 13.4066 75.2002 13.6133V9.89427C73.5818 9.89427 71.9631 10.6175 71.2952 12.3736ZM82.2626 23.4268C86.0392 23.4268 89.0707 20.4569 89.0707 16.6088C89.0707 12.761 86.0392 9.79105 82.2626 9.79105C78.486 9.79105 75.4802 12.761 75.4802 16.6088C75.4802 20.4569 78.486 23.4268 82.2626 23.4268ZM82.2626 20.1728C80.3101 20.1728 78.7943 18.7008 78.7943 16.609C78.7943 14.5171 80.3101 13.045 82.2626 13.045C84.2408 13.045 85.7566 14.5171 85.7566 16.6088C85.7566 18.7008 84.2408 20.1728 82.2626 20.1728ZM92.5326 8.603C93.663 8.603 94.5879 7.67334 94.5879 6.56287C94.5879 5.4524 93.663 4.49677 92.5326 4.49677C91.4279 4.49677 90.503 5.4524 90.503 6.56287C90.5083 7.10168 90.7238 7.61712 91.1036 7.99936C91.4821 8.3805 91.9955 8.59722 92.5326 8.603ZM90.8884 23.0652H94.2025V10.1525H90.8884V23.0652ZM102.837 23.4268C105.354 23.4268 107.538 22.0839 108.643 20.0696L105.765 18.4167C105.252 19.4756 104.147 20.1212 102.811 20.1212C100.833 20.1212 99.3682 18.6491 99.3682 16.6088C99.3682 14.5427 100.833 13.0708 102.811 13.0708C104.121 13.0708 105.226 13.7423 105.74 14.8013L108.591 13.1224C107.538 11.1339 105.354 9.79105 102.837 9.79105C98.9315 9.79105 96.0541 12.761 96.0541 16.6088C96.0541 20.4569 98.9315 23.4268 102.837 23.4268ZM115.795 23.4268C119.572 23.4268 122.603 20.4569 122.603 16.6088C122.603 12.761 119.572 9.79105 115.795 9.79105C112.018 9.79105 109.013 12.761 109.013 16.6088C109.013 20.4569 112.018 23.4268 115.795 23.4268ZM115.795 20.1728C113.843 20.1728 112.327 18.7008 112.327 16.609C112.327 14.5171 113.843 13.045 115.795 13.045C117.773 13.045 119.289 14.5171 119.289 16.6088C119.289 18.7008 117.773 20.1728 115.795 20.1728ZM131.563 9.79105C129.842 9.79105 128.506 10.4367 127.735 11.5988V10.1525H124.421V23.0652H127.735V16.0924C127.735 13.8457 128.942 12.89 130.561 12.89C132.051 12.89 133.104 13.7941 133.104 15.5502V23.0652H136.419V15.1369C136.419 11.7021 134.286 9.79105 131.563 9.79105ZM141.792 13.8195C141.792 13.1223 142.46 12.7608 143.282 12.7608C144.232 12.7608 144.952 13.2515 145.337 14.0779L148.163 12.5283C147.161 10.7463 145.363 9.79088 143.282 9.79088C140.636 9.79088 138.4 11.263 138.4 13.8971C138.4 18.4424 145.029 17.4093 145.029 19.2946C145.029 20.0435 144.309 20.4051 143.256 20.4051C141.971 20.4051 141.098 19.7852 140.738 18.7264L137.861 20.3535C138.786 22.342 140.687 23.4266 143.256 23.4266C146.005 23.4266 148.42 22.0838 148.42 19.2946C148.42 14.5427 141.792 15.7308 141.792 13.8195Z" fill="#8B5CF6"/>
</svg>
